<?xml version="1.0" standalone="no"?><!DOCTYPE svg PUBLIC "-//W3C//DTD SVG 1.1//EN" "http://www.w3.org/Graphics/SVG/1.1/DTD/svg11.dtd"><svg t="1783606281314" class="icon" viewBox="0 0 1024 1024" version="1.1" xmlns="http://www.w3.org/2000/svg" p-id="1727" xmlns:xlink="http://www.w3.org/1999/xlink" width="200" height="200"><path d="M448.32 146.816c-25.856 0-46.912 21.056-46.912 46.976l0 221.824L370.496 434.048l11.904 19.84 19.072-11.264L401.472 468.48c0 25.92 21.056 46.976 46.912 46.976l448 0c25.792 0 46.912-21.056 46.912-46.976L943.296 193.792c0-25.92-21.12-46.976-46.912-46.976L448.32 146.816zM904.256 193.792 904.256 468.48c0 4.416-3.52 8-7.936 8l-448 0c-4.416 0-8.064-3.584-8.064-8L440.256 419.712l223.104-131.328-15.808-19.776L440.256 392.384 440.256 193.792c0-4.416 3.648-8.064 8.064-8.064l448 0C900.736 185.664 904.256 189.312 904.256 193.792z" fill="#425C7E" p-id="1728"></path><path d="M363.968 465.984C364.096 454.336 358.08 451.072 348.48 451.84 338.944 452.48 339.264 446.592 345.728 446.144c6.336-0.448 22.976-14.08 9.536-11.712C341.76 436.864 319.36 435.072 319.168 443.136L317.696 486.208C317.696 486.208 363.712 485.12 363.968 465.984z" fill="#425C7E" p-id="1729"></path><path d="M312.96 440.128C301.44 442.112 285.12 444.224 266.368 446.336 261.504 414.464 245.44 338.24 203.648 345.6c0.256 0.064-2.112 1.6-6.272 3.392l1.92 104.256c-1.28 0.064-2.496 0.192-3.712 0.32L184.192 372.16l2.496-8.704L181.312 353.6l-12.928 0L162.752 363.456l2.88 7.36 2.112 77.184 0.896 8.256C166.144 456.384 163.776 456.64 161.408 456.896L127.04 347.2C125.632 347.072 102.208 345.344 100.8 345.6 11.264 366.528 27.072 509.504 35.968 528.832c-0.512 2.496 4.8 3.84 14.144 4.16 4.224 51.84 8.064 90.496 8.128 91.072l0.192 1.856c2.176 6.4 4.352 49.088 21.376 53.376l21.504 169.344 47.68-1.344-0.768-158.464c0 0 0.064 0 0.32 0 1.792 0 3.392-0.32 5.184-0.384l20.416 160.512 40.704 0 15.168-201.92c4.736-6.72 8.512-14.144 10.752-21.44l0.192-1.6c0.064-0.576 2.624-25.728 5.76-62.72L246.72 509.44c0.32-0.192 0.768-0.192 1.216-0.32C248.32 540.864 247.68 582.784 251.712 583.872 259.264 584.96 267.2 586.432 265.472 570.24 264 555.904 264.704 536.832 265.728 527.104c0.576-5.632 1.408-13.12 2.048-21.824C285.376 501.568 300.544 498.048 311.424 494.72 313.856 478.08 311.424 451.328 312.96 440.128zM53.312 543.744 50.56 536.064l52.608-0.64L53.312 543.744zM148.224 688.896l0-0.768C149.12 688.256 148.352 688.704 148.224 688.896zM200.064 454.08 200.064 448.832l45.952 1.536L200.064 454.08z" fill="#425C7E" p-id="1730"></path><path d="M222.528 191.296c0 0-56.064-51.648-127.616-14.592C88.768 179.904 68.16 220.672 86.016 238.592 83.328 240.256 81.216 249.792 81.216 261.44c0 12.8 2.496 23.232 5.696 23.232 1.408 0 2.752-2.304 3.712-5.824 10.176 39.232 44.096 68.288 63.104 68.288 23.68 0 56.128-27.264 60.928-70.912 1.024 4.48 7.232-39.104 4.096-39.104-0.512 0-1.152 0.512-1.664 1.152C217.472 232.32 217.6 226.176 216.64 218.56 205.888 227.328 185.728 215.68 163.904 205.312c2.624 1.088 5.248 2.176 7.808 3.456C208 227.456 222.528 191.296 222.528 191.296zM87.552 238.528C87.488 238.528 87.488 238.528 87.552 238.528c0-1.344 0.128-3.392 0.32-6.08C87.68 234.432 87.616 236.48 87.552 238.528zM87.872 232.448C88.064 230.208 88.32 227.52 88.576 224.64c0.128 0.96 0 1.6 0.128 2.496C88.32 228.736 88.064 230.592 87.872 232.448zM94.336 198.464c1.28-2.624 2.688-4.16 4.48-4.16C97.088 195.392 95.616 196.864 94.336 198.464z" fill="#425C7E" p-id="1731"></path><path d="M214.848 856.192 177.92 856.192l0.576 1.152c0 0-1.344 3.072 1.216 13.312 1.088 0.896 6.208 0.896 7.936 0.896 1.536 0.064 0-3.84 4.992-0.256 9.344 6.784 19.2 13.056 35.328 11.84C255.296 881.088 214.848 856.192 214.848 856.192z" fill="#425C7E" p-id="1732"></path><path d="M141.632 855.808l-41.6 0 0.64 1.088c0 0-1.472 3.136 1.344 13.44 1.344 0.832 7.04 0.832 8.96 0.832 1.792 0.128 0-3.904 5.568-0.32 10.56 6.912 21.696 13.056 39.936 11.904C187.392 880.64 141.632 855.808 141.632 855.808z" fill="#425C7E" p-id="1733"></path><path d="M246.784 600 263.744 586.944 251.712 586.304Z" fill="#425C7E" p-id="1734"></path><path d="M430.4 704.192c1.92-10.432 5.632-22.272 12.096-36.096 1.408-3.136 3.2-6.08 5.184-9.088 0-2.624 1.408-4.8 3.712-6.144 0.576-0.32 1.152-0.768 1.856-1.28 1.024-1.344 2.304-2.048 3.328-3.264C454.784 643.072 452.672 637.696 449.92 631.68 436.032 600.576 407.04 597.824 389.184 599.36 388.864 599.168 388.544 599.04 388.288 598.976c3.776-2.048 7.744-4.032 12.096-5.44 0 0-37.312-3.136-60.032 23.808C339.264 618.176 338.24 619.008 337.152 619.52c0 0 0.64 0 1.664-0.064C336 623.04 333.44 627.008 331.328 631.68 316.416 663.552 316.48 684.096 320 704.576c1.024-0.192 1.984-0.384 3.008-0.384l22.208 0c0-0.448 0-0.832-0.064-1.344 0.128 0.512 0.32 0.896 0.448 1.344L430.4 704.192z" fill="#425C7E" p-id="1735"></path><path d="M638.976 644.224c2.304-1.216 6.016-3.84 9.216-6.272 0.96-0.704 1.792-1.344 2.752-2.112 1.152-10.688 2.496-21.248 2.496-21.248S612.928 570.112 548.032 603.712c-5.696 3.008-13.696 10.752-20.672 14.08 0 0 1.472 6.208 2.88 15.104 16.384 3.328 33.792 12.544 44.032 35.392 6.208 13.696 9.792 25.28 11.904 35.968L629.76 704.256c1.216-6.656 2.816-11.52 5.12-14.784 0.192-1.152 0.32-2.24 0.512-3.328-1.664-13.952-4.224-25.28-4.224-25.472C629.44 654.08 632.832 647.168 638.976 644.224z" fill="#425C7E" p-id="1736"></path><path d="M428.672 720.256 323.008 720.256c-13.248 0-24.064 10.88-24.064 24.064l0 70.016c0 13.248 10.816 24.128 24.064 24.128l77.696 0 0-54.528c0-18.56 12.672-34.048 29.888-38.656C429.248 737.536 428.416 729.344 428.672 720.256z" fill="#425C7E" p-id="1737"></path><path d="M786.56 704.192l56.192 0c1.984-10.432 5.696-22.272 12.16-36.096 1.472-3.136 3.136-6.08 5.056-9.088 0.192-2.496 1.472-4.8 3.84-6.144 0.576-0.32 1.28-0.768 1.792-1.28 1.024-1.344 2.176-2.048 3.328-3.264-1.856-5.312-3.84-10.688-6.528-16.704-14.016-31.104-43.008-33.856-60.8-32.32-0.384-0.192-0.64-0.32-1.024-0.384 3.84-2.048 7.744-4.032 12.16-5.44 0 0-37.248-3.136-60.032 23.808-1.088 0.832-2.24 1.6-3.264 2.112 0 0 0.704 0 1.664-0.064-0.896 1.28-1.728 2.496-2.624 3.712 20.672 8.064 32.576 20.48 33.344 21.312 2.752 3.136 4.16 7.296 3.648 11.456-1.216 9.728-2.88 23.68-4.032 33.152C783.872 692.416 785.536 697.472 786.56 704.192z" fill="#425C7E" p-id="1738"></path><path d="M841.152 720.256l-53.888 0c-0.384 12.864-3.072 20.864-6.656 25.6 16.384 5.12 28.224 20.032 28.224 38.08l0 54.528 4.352 0 0-54.528c0-18.56 12.608-34.048 29.824-38.656C841.6 737.536 840.832 729.344 841.152 720.256z" fill="#425C7E" p-id="1739"></path><path d="M628.8 720.256 588.032 720.256c0.384 9.664-0.704 19.008-2.304 28.672 9.088 4.736 15.744 12.928 19.136 22.976 4.16-13.632 15.296-24.064 29.312-27.2C631.168 739.84 628.992 732.032 628.8 720.256z" fill="#425C7E" p-id="1740"></path><path d="M461.76 735.36c3.776-0.64 7.168 1.6 8.128 5.184 0.256 1.088 0.704 2.176 1.024 3.264l71.36 0c0.64-3.136 1.152-6.272 1.6-9.408 0.512-3.84 3.712-6.4 7.424-6.4 3.712 0.256 6.72 3.2 7.04 6.912 0.192 3.008 0.192 5.952 0.256 8.896l8.128 0c1.664 0 3.328 0.384 4.928 0.512 3.776-21.312 3.072-40.128-10.56-70.144-8.512-18.816-24.128-28.352-46.656-28.352-2.432 0-4.672 0.128-6.848 0.32-1.152 0.064-1.984 0-2.944-0.32-2.048-0.704-3.904-2.176-4.8-4.16-11.328 2.112-25.536 7.424-36.224 20.032-0.128 0.192-0.448 0.448-0.64 0.768-0.192 0.384-0.448 0.768-0.832 1.152-2.688 3.456-4.8 6.848-6.528 10.752-14.912 31.616-13.824 51.2-10.688 69.504l10.752 0c0-0.448-0.064-0.64-0.064-1.024C455.552 739.072 458.112 735.872 461.76 735.36z" fill="#425C7E" p-id="1741"></path><path d="M648.32 696.896c-2.752 0-5.184 9.28-5.184 20.928 0 11.584 2.432 20.928 5.184 20.928 1.344 0 2.56-2.048 3.456-5.312 0.896 3.712 2.24 6.976 3.456 10.368l106.368 0c1.152-4.032 2.048-8.256 2.496-12.608 1.024 4.032 2.24 6.592 3.776 6.592 2.88 0 5.12-9.344 5.12-21.056 0-11.584-2.24-20.992-5.12-20.992-0.64 0-1.088 0.448-1.472 1.216 0.32-5.504 4.864-42.624 4.864-42.624s-0.384-0.448-0.704-0.832c-0.128-0.128-0.32-0.256-0.576-0.512-0.512-0.512-1.28-1.216-2.24-2.112-0.192-0.128-0.384-0.256-0.576-0.384-1.088-0.896-2.432-2.048-4.032-3.264-0.512-0.256-0.896-0.576-1.344-0.896-1.472-1.152-3.136-2.048-4.864-3.264-0.448-0.256-0.832-0.512-1.344-0.832-2.24-1.28-4.672-2.368-7.296-3.712-0.576-0.32-1.216-0.576-1.856-0.832-2.24-0.96-4.544-1.856-7.168-2.752-0.832-0.192-1.536-0.448-2.176-0.704-3.264-1.088-6.656-1.856-10.176-2.368-0.64-0.128-1.344-0.128-1.856-0.256-3.136-0.384-6.464-0.576-9.92-0.704-1.088-0.128-2.112-0.128-3.392-0.128-1.984 0.128-4.032 0.256-6.016 0.448-1.408 0.128-2.944 0.256-4.48 0.384-2.048 0.384-4.352 0.768-6.656 1.216-1.536 0.384-2.88 0.704-4.48 0.96-2.496 0.768-5.184 1.664-7.68 2.56-1.408 0.512-2.688 0.896-4.096 1.344-4.032 1.536-8.192 3.392-12.48 5.696-5.696 2.88-13.696 10.752-20.48 13.952 0 0 3.072 13.312 4.736 29.248-0.704 3.008-0.896 6.592-1.024 10.368C648.832 696.896 648.512 696.896 648.32 696.896z" fill="#425C7E" p-id="1742"></path><path d="M566.72 759.808 440.768 759.808c-13.312 0-24.064 10.752-24.064 24.128l0 70.08c0 13.248 10.752 24 24.064 24l126.016 0c13.12 0 24-10.752 24-24l0-70.08C590.72 770.56 579.904 759.808 566.72 759.808z" fill="#425C7E" p-id="1743"></path><path d="M920.064 646.144c-1.088 0.064-2.048 0-2.944-0.32-2.048-0.704-3.968-2.176-4.8-4.16-11.328 2.112-25.6 7.424-36.096 20.032-0.32 0.192-0.64 0.448-0.832 0.768-0.256 0.384-0.448 0.768-0.768 1.152-2.688 3.52-4.864 6.848-6.656 10.752-14.784 31.616-13.824 51.2-10.624 69.504l10.88 0c-0.128-0.448-0.128-0.64-0.128-1.024-0.192-3.776 2.432-6.912 6.08-7.424 3.776-0.64 7.04 1.6 8.192 5.184 0.256 1.088 0.704 2.176 1.024 3.264l71.232 0c0.704-3.136 1.216-6.272 1.664-9.408 0.576-3.84 3.776-6.4 7.36-6.4 3.904 0.256 6.784 3.2 7.04 6.912 0.128 3.008 0.192 5.952 0.32 8.896L979.2 743.872c1.6 0 3.264 0.384 4.864 0.512 3.776-21.312 2.944-40.128-10.496-70.144-8.512-18.816-24.192-28.352-46.656-28.352C924.48 645.824 922.112 645.952 920.064 646.144z" fill="#425C7E" p-id="1744"></path><path d="M979.2 759.808l-126.016 0c-13.312 0-24.064 10.752-24.064 24.128l0 70.08c0 13.248 10.752 24 24.064 24L979.2 878.016c13.248 0 23.936-10.752 23.936-24l0-70.08C1003.136 770.56 992.448 759.808 979.2 759.808z" fill="#425C7E" p-id="1745"></path><path d="M768.704 759.808l-125.952 0c-13.376 0-24.128 10.752-24.128 24.128l0 70.08c0 13.248 10.752 24 24.128 24l125.952 0c13.248 0 23.936-10.752 23.936-24l0-70.08C792.64 770.56 781.952 759.808 768.704 759.808z" fill="#425C7E" p-id="1746"></path><path d="M732.48 316.352 625.024 429.248 560.384 395.2 483.776 452.352 879.424 452.544 879.424 230.336 791.616 341.376Z" fill="#425C7E" p-id="1747"></path></svg>