<?xml version="1.0" standalone="no"?><!DOCTYPE svg PUBLIC "-//W3C//DTD SVG 1.1//EN" "http://www.w3.org/Graphics/SVG/1.1/DTD/svg11.dtd"><svg t="1783498452685" class="icon" viewBox="0 0 1024 1024" version="1.1" xmlns="http://www.w3.org/2000/svg" p-id="12635" xmlns:xlink="http://www.w3.org/1999/xlink" width="200" height="200"><path d="M571.648 560.9472m-408.2176 0a408.2176 408.2176 0 1 0 816.4352 0 408.2176 408.2176 0 1 0-816.4352 0Z" fill="#FFF3AE" p-id="12636"></path><path d="M925.184 499.3536A433.8176 433.8176 0 1 0 171.52 792.064a13.7728 13.7728 0 0 0 1.024 1.3824 433.3056 433.3056 0 0 0 91.0848 74.9056l6.0416 3.6864q5.12 3.0208 10.24 5.8368c5.5808 3.1232 11.2128 6.144 16.9472 9.0112l0.5632 0.3072a432.384 432.384 0 0 0 114.2272 38.5024l5.4272 0.9216c4.6592 0.8192 9.3696 1.5872 14.08 2.2528s8.0896 1.0752 12.1344 1.536c2.4064 0.3072 5.12 0.5632 7.3216 0.768 5.8368 0.5632 11.7248 1.024 17.664 1.3312h2.0992c7.0144 0.3584 14.0288 0.5632 21.0944 0.5632s14.08 0 21.0944-0.5632h2.0992c5.9392-0.3072 11.8272-0.768 17.7152-1.3312 2.4064 0 5.12-0.4608 7.2704-0.768q6.0928-0.7168 12.1344-1.536c4.7104-0.6656 9.4208-1.4336 14.1312-2.2528l5.12-0.9216a430.6432 430.6432 0 0 0 114.2272-38.5536h0.3072c5.8368-2.9696 11.5712-5.9904 17.2032-9.1648l10.24-5.7344c2.048-1.28 4.1472-2.5088 6.1952-3.84A431.2064 431.2064 0 0 0 810.1888 793.6a13.7728 13.7728 0 0 0 1.024-1.3824 431.9744 431.9744 0 0 0 113.9712-292.864zM491.52 116.736a382.3616 382.3616 0 0 1 315.4432 599.04 326.8608 326.8608 0 0 0-214.1184-225.7408 160.8192 160.8192 0 1 0-202.5984 0 326.7584 326.7584 0 0 0-214.1696 225.7408A382.3616 382.3616 0 0 1 491.52 116.736z m228.9152 688.9984l-3.072 2.2016c-3.7888 2.7648-7.5776 5.5296-11.4688 8.192a381.7984 381.7984 0 0 1-428.6976 0c-3.9936-2.7136-7.8848-5.5296-11.7248-8.3456l-2.816-2.048a383.5392 383.5392 0 0 1-44.4416-39.0144 276.992 276.992 0 0 1 259.8912-241.4592c4.4544 0.4096 8.9088 0.6144 13.4144 0.6144s9.0112 0 13.4144-0.6144a277.0432 277.0432 0 0 1 259.9424 241.4592 387.7888 387.7888 0 0 1-44.5952 39.0144zM381.7984 365.1072a109.6192 109.6192 0 1 1 121.3952 108.9024h-23.6544a109.7216 109.7216 0 0 1-97.7408-108.9024z" fill="#333333" p-id="12637"></path></svg>