<?xml version="1.0" standalone="no"?><!DOCTYPE svg PUBLIC "-//W3C//DTD SVG 1.1//EN" "http://www.w3.org/Graphics/SVG/1.1/DTD/svg11.dtd"><svg t="1783493509008" class="icon" viewBox="0 0 1024 1024" version="1.1" xmlns="http://www.w3.org/2000/svg" p-id="7853" xmlns:xlink="http://www.w3.org/1999/xlink" width="200" height="200"><path d="M576 192l192 192v416c0 19.2-12.8 32-32 32h-128c-19.2 0-32-12.8-32-32s12.8-32 32-32h96V416h-128c-19.2 0-32-12.8-32-32V256h-224v224c0 19.2-12.8 32-32 32s-32-12.8-32-32V224c0-19.2 12.8-32 32-32h288z" fill="#221814" p-id="7854"></path><path d="M236.8 582.4c12.8-9.6 28.8-9.6 38.4 0l3.2 3.2 3.2 3.2c9.6 12.8 9.6 28.8 0 38.4l-3.2 3.2L236.8 672H419.2c16 3.2 28.8 16 28.8 32s-12.8 28.8-28.8 32H236.8l41.6 41.6c12.8 12.8 12.8 28.8 3.2 41.6l-3.2 3.2c-12.8 12.8-28.8 12.8-41.6 3.2l-3.2-3.2-96-96-3.2-3.2c-3.2-6.4-6.4-12.8-6.4-19.2 0-6.4 3.2-12.8 6.4-19.2l3.2-3.2 99.2-99.2zM544 672c19.2 0 32 12.8 32 32 0 16-12.8 28.8-28.8 32H512c-19.2 0-32-12.8-32-32 0-16 12.8-28.8 28.8-32H544z" fill="#C70019" p-id="7855"></path></svg>