<?xml version="1.0" standalone="no"?><!DOCTYPE svg PUBLIC "-//W3C//DTD SVG 1.1//EN" "http://www.w3.org/Graphics/SVG/1.1/DTD/svg11.dtd"><svg t="1783493409384" class="icon" viewBox="0 0 1024 1024" version="1.1" xmlns="http://www.w3.org/2000/svg" p-id="1715" xmlns:xlink="http://www.w3.org/1999/xlink" width="200" height="200"><path d="M790.157981 263.097393a67.2 67.2 0 1 0 95.033493-95.03681 67.2 67.2 0 1 0-95.033493 95.03681Z" fill="#363838" p-id="1716"></path><path d="M347.1 749.8h267.6c14.2 0 28-17.1 28-31.3s-13.7-32.4-28-32.4H405.1l320.4-313.7c9.9-10.2 8.7-34.6-1.5-44.5-10-9.6-36.1-8.2-46 1.4L360.1 636.1V443.8c0-14.2-17.1-25.7-31.3-25.7s-31.3 11.5-31.3 25.7v256.4c0 27.4 22.2 49.6 49.6 49.6z" fill="#363838" p-id="1717"></path><path d="M863.6 534c-19 0-34.4 15.4-34.4 34.4v190.7c0 43.6-35.4 79-79 79H282.7c-43.6 0-79-35.4-79-79V291.7c0-43.6 35.4-79 79-79H518c19 0 34.4-15.4 34.4-34.4S537 143.9 518 143.9H282.7c-81.5 0-147.9 66.3-147.9 147.9v467.4c0 81.5 66.3 147.9 147.9 147.9h467.4c81.5 0 147.9-66.3 147.9-147.9V568.4c0-19-15.4-34.4-34.4-34.4z" fill="#363838" p-id="1718"></path></svg>